<svg xmlns="http://www.w3.org/2000/svg" width="700" height="400" viewBox="0 0 700 400"><defs><linearGradient id="g" x1="0" x2="1"><stop stop-color="#f5f8fc"/><stop offset="1" stop-color="#dbe8f4"/></linearGradient></defs><rect width="700" height="400" rx="28" fill="url(#g)"/><circle cx="595" cy="92" r="64" fill="#245fb8" opacity=".12"/><text x="42" y="65" font-family="Arial,sans-serif" font-size="20" font-weight="800" fill="#245fb8">BMW</text><text x="42" y="100" font-family="Arial,sans-serif" font-size="30" font-weight="900" fill="#07182a">M440i</text><path d="M90 265 C115 225 182 210 252 210 L420 210 C505 210 566 232 604 265 L640 285 L640 305 L70 305 L70 285 Z" fill="#0d233b"/><rect x="196" y="175" width="215" height="75" rx="28" fill="#173e64"/><path d="M220 200 L262 166 L352 166 L394 200 Z" fill="#102e4e"/><circle cx="168" cy="310" r="32" fill="#07182a"/><circle cx="542" cy="310" r="32" fill="#07182a"/><circle cx="168" cy="310" r="14" fill="#8ea3b8"/><circle cx="542" cy="310" r="14" fill="#8ea3b8"/><rect x="70" y="320" width="560" height="3" fill="#9fb4c9" opacity=".55"/><text x="42" y="370" font-family="Arial,sans-serif" font-size="15" fill="#6f849b">TRG Auto model image card • Other</text></svg>